<svg width="25" height="24" viewBox="0 0 25 24" fill="none" xmlns="http://www.w3.org/2000/svg">
<path fill-rule="evenodd" clip-rule="evenodd" d="M8.21109 1.066C9.38409 1.012 9.75809 1 12.7461 1C15.7341 1 16.1081 1.013 17.2801 1.066C18.4521 1.119 19.2521 1.306 19.9521 1.577C20.6851 1.854 21.3501 2.287 21.9001 2.847C22.4601 3.396 22.8921 4.06 23.1681 4.794C23.4401 5.494 23.6261 6.294 23.6801 7.464C23.7341 8.639 23.7461 9.013 23.7461 12C23.7461 14.988 23.7331 15.362 23.6801 16.535C23.6271 17.705 23.4401 18.505 23.1681 19.205C22.8921 19.9391 22.4594 20.6042 21.9001 21.154C21.3501 21.714 20.6851 22.146 19.9521 22.422C19.2521 22.694 18.4521 22.88 17.2821 22.934C16.1081 22.988 15.7341 23 12.7461 23C9.75809 23 9.38409 22.987 8.21109 22.934C7.04109 22.881 6.24109 22.694 5.54109 22.422C4.80701 22.146 4.14191 21.7133 3.59209 21.154C3.03247 20.6047 2.59941 19.9399 2.32309 19.206C2.05209 18.506 1.86609 17.706 1.81209 16.536C1.75809 15.361 1.74609 14.987 1.74609 12C1.74609 9.012 1.75909 8.638 1.81209 7.466C1.86509 6.294 2.05209 5.494 2.32309 4.794C2.59982 4.06008 3.03321 3.39531 3.59309 2.846C4.14213 2.2865 4.80657 1.85344 5.54009 1.577C6.24009 1.306 7.04009 1.12 8.21009 1.066H8.21109ZM17.1911 3.046C16.0311 2.993 15.6831 2.982 12.7461 2.982C9.80909 2.982 9.46109 2.993 8.30109 3.046C7.22809 3.095 6.64609 3.274 6.25809 3.425C5.74509 3.625 5.37809 3.862 4.99309 4.247C4.62814 4.60205 4.34727 5.03428 4.17109 5.512C4.02009 5.9 3.84109 6.482 3.79209 7.555C3.73909 8.715 3.72809 9.063 3.72809 12C3.72809 14.937 3.73909 15.285 3.79209 16.445C3.84109 17.518 4.02009 18.1 4.17109 18.488C4.34709 18.965 4.62809 19.398 4.99309 19.753C5.34809 20.118 5.78109 20.399 6.25809 20.575C6.64609 20.726 7.22809 20.905 8.30109 20.954C9.46109 21.007 9.80809 21.018 12.7461 21.018C15.6841 21.018 16.0311 21.007 17.1911 20.954C18.2641 20.905 18.8461 20.726 19.2341 20.575C19.7471 20.375 20.1141 20.138 20.4991 19.753C20.8641 19.398 21.1451 18.965 21.3211 18.488C21.4721 18.1 21.6511 17.518 21.7001 16.445C21.7531 15.285 21.7641 14.937 21.7641 12C21.7641 9.063 21.7531 8.715 21.7001 7.555C21.6511 6.482 21.4721 5.9 21.3211 5.512C21.1211 4.999 20.8841 4.632 20.4991 4.247C20.144 3.88207 19.7118 3.60121 19.2341 3.425C18.8461 3.274 18.2641 3.095 17.1911 3.046V3.046ZM11.3411 15.391C12.1258 15.7176 12.9995 15.7617 13.813 15.5157C14.6266 15.2697 15.3295 14.7489 15.8017 14.0422C16.2739 13.3356 16.4861 12.4869 16.4021 11.6411C16.3181 10.7953 15.9431 10.005 15.3411 9.405C14.9573 9.02148 14.4933 8.72781 13.9824 8.54515C13.4715 8.36248 12.9265 8.29536 12.3866 8.34862C11.8467 8.40187 11.3252 8.57418 10.8599 8.85313C10.3945 9.13208 9.99684 9.51074 9.6954 9.96185C9.39396 10.413 9.19628 10.9253 9.11661 11.462C9.03694 11.9986 9.07725 12.5463 9.23463 13.0655C9.39202 13.5847 9.66258 14.0626 10.0268 14.4647C10.3911 14.8668 10.8399 15.1832 11.3411 15.391ZM8.74809 8.002C9.27312 7.47698 9.89641 7.0605 10.5824 6.77636C11.2684 6.49222 12.0036 6.34597 12.7461 6.34597C13.4886 6.34597 14.2238 6.49222 14.9098 6.77636C15.5958 7.0605 16.2191 7.47698 16.7441 8.002C17.2691 8.52702 17.6856 9.15032 17.9697 9.8363C18.2539 10.5223 18.4001 11.2575 18.4001 12C18.4001 12.7425 18.2539 13.4777 17.9697 14.1637C17.6856 14.8497 17.2691 15.473 16.7441 15.998C15.6838 17.0583 14.2456 17.654 12.7461 17.654C11.2466 17.654 9.80843 17.0583 8.74809 15.998C7.68776 14.9377 7.09207 13.4995 7.09207 12C7.09207 10.5005 7.68776 9.06234 8.74809 8.002V8.002ZM19.6541 7.188C19.7842 7.06527 19.8884 6.91768 19.9604 6.75397C20.0324 6.59027 20.0709 6.41377 20.0735 6.23493C20.0761 6.05609 20.0428 5.87855 19.9756 5.71281C19.9083 5.54707 19.8085 5.39651 19.6821 5.27004C19.5556 5.14357 19.405 5.04376 19.2393 4.97652C19.0735 4.90928 18.896 4.87598 18.7172 4.87858C18.5383 4.88119 18.3618 4.91965 18.1981 4.9917C18.0344 5.06374 17.8868 5.1679 17.7641 5.298C17.5254 5.55103 17.3947 5.88712 17.3998 6.23493C17.4049 6.58274 17.5453 6.91488 17.7913 7.16084C18.0372 7.40681 18.3694 7.54723 18.7172 7.5523C19.065 7.55737 19.4011 7.42669 19.6541 7.188V7.188Z" fill="#797573"/>
</svg>
