<svg xmlns="http://www.w3.org/2000/svg" width="25" height="24" fill="none" viewBox="0 0 25 24"><path stroke="#797573" stroke-linejoin="round" stroke-width="2" d="M23.0001 5.79835C22.2672 6.12308 21.48 6.34249 20.6524 6.44167C21.5063 5.9307 22.1452 5.12649 22.4498 4.1791C21.6475 4.65565 20.7694 4.99109 19.8537 5.17084C19.2379 4.51336 18.4223 4.07758 17.5335 3.93114C16.6447 3.78471 15.7324 3.93581 14.9382 4.36099C14.1441 4.78618 13.5125 5.46166 13.1416 6.28255C12.7707 7.10345 12.6812 8.02384 12.887 8.90083C11.2613 8.8192 9.67095 8.39666 8.21914 7.66063C6.76734 6.9246 5.48653 5.89153 4.45982 4.62845C4.10876 5.23403 3.90691 5.93614 3.90691 6.6839C3.90651 7.35705 4.07228 8.01988 4.3895 8.6136C4.70672 9.20732 5.4402 9.62616 6 10C5.35079 9.97934 4.44128 9.89132 3.87355 9.57573V9.62839C3.87349 10.5725 4.20007 11.4876 4.79787 12.2183C5.39568 12.9491 6.2279 13.4505 7.15331 13.6375C6.55106 13.8005 5.91964 13.8245 5.30675 13.7077C5.56784 14.52 6.07644 15.2304 6.76133 15.7394C7.44622 16.2483 8.14686 16.4844 9 16.5C7.55174 17.6369 5.8894 18.2996 4.04821 18.2969C3.72206 18.297 3.39618 18.2779 3.07227 18.2398C4.94119 19.4415 7.11675 20.0792 9.33865 20.0767C16.8601 20.0767 20.9718 13.8472 20.9718 8.44445C20.9718 8.26892 20.9674 8.09164 20.9595 7.91611C21.7593 7.33772 22.4497 6.62149 22.9983 5.80099L23.0001 5.79835Z"/></svg>